<svg width="35" height="35" viewBox="0 0 35 35" fill="none" xmlns="http://www.w3.org/2000/svg">
<path d="M8.74998 17.5C7.97643 17.5 7.23457 17.1927 6.68758 16.6457C6.1406 16.0988 5.83331 15.3569 5.83331 14.5833C5.83331 13.8098 6.1406 13.0679 6.68758 12.5209C7.23457 11.974 7.97643 11.6667 8.74998 11.6667M8.74998 17.5C9.52353 17.5 10.2654 17.1927 10.8124 16.6457C11.3594 16.0988 11.6666 15.3569 11.6666 14.5833C11.6666 13.8098 11.3594 13.0679 10.8124 12.5209C10.2654 11.974 9.52353 11.6667 8.74998 11.6667M8.74998 17.5V29.1667M8.74998 11.6667V5.83334M17.5 26.25C16.7264 26.25 15.9846 25.9427 15.4376 25.3957C14.8906 24.8488 14.5833 24.1069 14.5833 23.3333C14.5833 22.5598 14.8906 21.8179 15.4376 21.2709C15.9846 20.724 16.7264 20.4167 17.5 20.4167M17.5 26.25C18.2735 26.25 19.0154 25.9427 19.5624 25.3957C20.1094 24.8488 20.4166 24.1069 20.4166 23.3333C20.4166 22.5598 20.1094 21.8179 19.5624 21.2709C19.0154 20.724 18.2735 20.4167 17.5 20.4167M17.5 26.25V29.1667M17.5 20.4167V5.83334M26.25 13.125C25.4764 13.125 24.7346 12.8177 24.1876 12.2707C23.6406 11.7238 23.3333 10.9819 23.3333 10.2083C23.3333 9.4348 23.6406 8.69293 24.1876 8.14595C24.7346 7.59897 25.4764 7.29168 26.25 7.29168M26.25 13.125C27.0235 13.125 27.7654 12.8177 28.3124 12.2707C28.8594 11.7238 29.1666 10.9819 29.1666 10.2083C29.1666 9.4348 28.8594 8.69293 28.3124 8.14595C27.7654 7.59897 27.0235 7.29168 26.25 7.29168M26.25 13.125V29.1667M26.25 7.29168V5.83334" stroke="#1BA897" stroke-width="3" stroke-linecap="round" stroke-linejoin="round"/>
</svg>
