<svg width="30" height="30" viewBox="0 0 30 30" fill="none" xmlns="http://www.w3.org/2000/svg">
<path d="M7.5 7.5C7.5 8.29565 7.18393 9.05871 6.62132 9.62132C6.05871 10.1839 5.29565 10.5 4.5 10.5C3.70435 10.5 2.94129 10.1839 2.37868 9.62132C1.81607 9.05871 1.5 8.29565 1.5 7.5C1.5 6.70435 1.81607 5.94129 2.37868 5.37868C2.94129 4.81607 3.70435 4.5 4.5 4.5C5.29565 4.5 6.05871 4.81607 6.62132 5.37868C7.18393 5.94129 7.5 6.70435 7.5 7.5ZM7.5 7.5L19.5 6M19.5 6C19.5 7.19347 19.9741 8.33807 20.818 9.18198C21.6619 10.0259 22.8065 10.5 24 10.5C25.1935 10.5 26.3381 10.0259 27.182 9.18198C28.0259 8.33807 28.5 7.19347 28.5 6C28.5 4.80653 28.0259 3.66193 27.182 2.81802C26.3381 1.97411 25.1935 1.5 24 1.5C22.8065 1.5 21.6619 1.97411 20.818 2.81802C19.9741 3.66193 19.5 4.80653 19.5 6ZM10.5 22.5L18 20.25M6.75 9.75L18.465 17.805M18 19.5C18 20.2956 18.3161 21.0587 18.8787 21.6213C19.4413 22.1839 20.2044 22.5 21 22.5C21.7956 22.5 22.5587 22.1839 23.1213 21.6213C23.6839 21.0587 24 20.2956 24 19.5C24 18.7044 23.6839 17.9413 23.1213 17.3787C22.5587 16.8161 21.7956 16.5 21 16.5C20.2044 16.5 19.4413 16.8161 18.8787 17.3787C18.3161 17.9413 18 18.7044 18 19.5ZM1.5 24C1.5 25.1935 1.97411 26.3381 2.81802 27.182C3.66193 28.0259 4.80653 28.5 6 28.5C7.19347 28.5 8.33807 28.0259 9.18198 27.182C10.0259 26.3381 10.5 25.1935 10.5 24C10.5 22.8065 10.0259 21.6619 9.18198 20.818C8.33807 19.9741 7.19347 19.5 6 19.5C4.80653 19.5 3.66193 19.9741 2.81802 20.818C1.97411 21.6619 1.5 22.8065 1.5 24Z" stroke="url(#paint0_linear_137_46)" stroke-width="2" stroke-linecap="round" stroke-linejoin="round"/>
<defs>
<linearGradient id="paint0_linear_137_46" x1="15" y1="1.5" x2="15" y2="28.5" gradientUnits="userSpaceOnUse">
<stop stop-color="#1BA897"/>
<stop offset="1" stop-color="#0B423B"/>
</linearGradient>
</defs>
</svg>
