<svg width="40" height="30" viewBox="0 0 40 30" fill="none" xmlns="http://www.w3.org/2000/svg">
<path d="M36.6667 8.75C36.6667 7.0924 36.0082 5.50269 34.8361 4.33058C33.664 3.15848 32.0743 2.5 30.4167 2.5H28.3334C26.6758 2.5 25.0861 3.15848 23.914 4.33058C22.7419 5.50269 22.0834 7.0924 22.0834 8.75V21.25C22.0834 22.9076 22.7419 24.4973 23.914 25.6694C25.0861 26.8415 26.6758 27.5 28.3334 27.5H30.4167C32.0743 27.5 33.664 26.8415 34.8361 25.6694C36.0082 24.4973 36.6667 22.9076 36.6667 21.25M3.33337 6.66667C3.33337 7.77174 3.77236 8.83154 4.55376 9.61294C5.33516 10.3943 6.39497 10.8333 7.50004 10.8333C8.60511 10.8333 9.66492 10.3943 10.4463 9.61294C11.2277 8.83154 11.6667 7.77174 11.6667 6.66667C11.6667 5.5616 11.2277 4.50179 10.4463 3.72039C9.66492 2.93899 8.60511 2.5 7.50004 2.5C6.39497 2.5 5.33516 2.93899 4.55376 3.72039C3.77236 4.50179 3.33337 5.5616 3.33337 6.66667Z" stroke="url(#paint0_linear_83_22)" stroke-width="5" stroke-linecap="round" stroke-linejoin="round"/>
<defs>
<linearGradient id="paint0_linear_83_22" x1="3.33337" y1="15" x2="36.6667" y2="15" gradientUnits="userSpaceOnUse">
<stop stop-color="#4DF1DD"/>
<stop offset="1" stop-color="#419389"/>
</linearGradient>
</defs>
</svg>
