<svg width="40" height="30" viewBox="0 0 40 30" fill="none" xmlns="http://www.w3.org/2000/svg">
<path d="M22.0833 15H32.5M36.6666 2.5H24.1666C23.6141 2.5 23.0842 2.71949 22.6935 3.11019C22.3028 3.5009 22.0833 4.0308 22.0833 4.58333V27.5M3.33331 6.66667C3.33331 7.77174 3.7723 8.83154 4.5537 9.61294C5.3351 10.3943 6.39491 10.8333 7.49998 10.8333C8.60505 10.8333 9.66486 10.3943 10.4463 9.61294C11.2277 8.83154 11.6666 7.77174 11.6666 6.66667C11.6666 5.5616 11.2277 4.50179 10.4463 3.72039C9.66486 2.93899 8.60505 2.5 7.49998 2.5C6.39491 2.5 5.3351 2.93899 4.5537 3.72039C3.7723 4.50179 3.33331 5.5616 3.33331 6.66667Z" stroke="url(#paint0_linear_83_3)" stroke-width="5" stroke-linecap="round" stroke-linejoin="round"/>
<defs>
<linearGradient id="paint0_linear_83_3" x1="3.33331" y1="15" x2="36.6666" y2="15" gradientUnits="userSpaceOnUse">
<stop stop-color="#4DF1DD"/>
<stop offset="1" stop-color="#419389"/>
</linearGradient>
</defs>
</svg>
