<svg width="224" height="234" viewBox="0 0 224 234" fill="none" xmlns="http://www.w3.org/2000/svg">
<path d="M3.444 171.264H11.508L19.446 192.096L27.468 171.264H35.448V201H30.408V176.304H30.324L21.294 201H17.598L8.568 176.304H8.484V201H3.444V171.264ZM40.6048 186.258C40.6048 183.878 40.9968 181.722 41.7808 179.79C42.5648 177.83 43.6428 176.164 45.0148 174.792C46.4148 173.42 48.0668 172.37 49.9708 171.642C51.9028 170.886 54.0168 170.508 56.3128 170.508C58.6088 170.508 60.7228 170.872 62.6548 171.6C64.6148 172.328 66.2948 173.378 67.6948 174.75C69.0948 176.094 70.1868 177.732 70.9708 179.664C71.7548 181.568 72.1468 183.71 72.1468 186.09C72.1468 188.414 71.7548 190.542 70.9708 192.474C70.1868 194.378 69.0948 196.03 67.6948 197.43C66.2948 198.802 64.6148 199.866 62.6548 200.622C60.7228 201.378 58.6088 201.756 56.3128 201.756C54.0168 201.756 51.9028 201.392 49.9708 200.664C48.0668 199.908 46.4148 198.858 45.0148 197.514C43.6428 196.142 42.5648 194.504 41.7808 192.6C40.9968 190.696 40.6048 188.582 40.6048 186.258ZM46.1488 185.922C46.1488 187.518 46.3868 188.988 46.8628 190.332C47.3668 191.676 48.0668 192.838 48.9628 193.818C49.8588 194.798 50.9228 195.568 52.1548 196.128C53.4148 196.688 54.8148 196.968 56.3548 196.968C57.8948 196.968 59.2948 196.688 60.5548 196.128C61.8148 195.568 62.8928 194.798 63.7888 193.818C64.6848 192.838 65.3708 191.676 65.8468 190.332C66.3508 188.988 66.6028 187.518 66.6028 185.922C66.6028 184.438 66.3508 183.052 65.8468 181.764C65.3708 180.476 64.6848 179.356 63.7888 178.404C62.8928 177.424 61.8148 176.668 60.5548 176.136C59.2948 175.576 57.8948 175.296 56.3548 175.296C54.8148 175.296 53.4148 175.576 52.1548 176.136C50.9228 176.668 49.8588 177.424 48.9628 178.404C48.0668 179.356 47.3668 180.476 46.8628 181.764C46.3868 183.052 46.1488 184.438 46.1488 185.922ZM77.1871 171.264H88.7791C89.8991 171.264 91.0051 171.404 92.0971 171.684C93.1891 171.936 94.1551 172.37 94.9951 172.986C95.8631 173.574 96.5631 174.344 97.0951 175.296C97.6271 176.248 97.8931 177.396 97.8931 178.74C97.8931 180.42 97.4171 181.806 96.4651 182.898C95.5131 183.99 94.2671 184.774 92.7271 185.25V185.334C93.6511 185.446 94.5051 185.712 95.2891 186.132C96.1011 186.524 96.7871 187.042 97.3471 187.686C97.9071 188.302 98.3411 189.03 98.6491 189.87C98.9851 190.682 99.1531 191.564 99.1531 192.516C99.1531 194.14 98.8311 195.498 98.1871 196.59C97.5431 197.654 96.6891 198.522 95.6251 199.194C94.5891 199.838 93.3851 200.3 92.0131 200.58C90.6691 200.86 89.2971 201 87.8971 201H77.1871V171.264ZM82.4791 183.36H87.3091C89.0731 183.36 90.3891 183.024 91.2571 182.352C92.1531 181.652 92.6011 180.742 92.6011 179.622C92.6011 178.334 92.1391 177.382 91.2151 176.766C90.3191 176.122 88.8631 175.8 86.8471 175.8H82.4791V183.36ZM82.4791 196.464H87.3511C88.0231 196.464 88.7371 196.422 89.4931 196.338C90.2771 196.254 90.9911 196.058 91.6351 195.75C92.2791 195.442 92.8111 195.008 93.2311 194.448C93.6511 193.86 93.8611 193.076 93.8611 192.096C93.8611 190.5 93.3571 189.408 92.3491 188.82C91.3411 188.204 89.7451 187.896 87.5611 187.896H82.4791V196.464ZM104.296 171.264H109.588V201H104.296V171.264ZM136.523 178.236C135.431 177.06 134.367 176.276 133.331 175.884C132.323 175.492 131.301 175.296 130.265 175.296C128.725 175.296 127.325 175.576 126.065 176.136C124.833 176.668 123.769 177.424 122.873 178.404C121.977 179.356 121.277 180.476 120.773 181.764C120.297 183.052 120.059 184.438 120.059 185.922C120.059 187.518 120.297 188.988 120.773 190.332C121.277 191.676 121.977 192.838 122.873 193.818C123.769 194.798 124.833 195.568 126.065 196.128C127.325 196.688 128.725 196.968 130.265 196.968C131.469 196.968 132.631 196.688 133.751 196.128C134.899 195.54 135.963 194.616 136.943 193.356L141.311 196.464C139.967 198.312 138.329 199.656 136.397 200.496C134.465 201.336 132.407 201.756 130.223 201.756C127.927 201.756 125.813 201.392 123.881 200.664C121.977 199.908 120.325 198.858 118.925 197.514C117.553 196.142 116.475 194.504 115.691 192.6C114.907 190.696 114.515 188.582 114.515 186.258C114.515 183.878 114.907 181.722 115.691 179.79C116.475 177.83 117.553 176.164 118.925 174.792C120.325 173.42 121.977 172.37 123.881 171.642C125.813 170.886 127.927 170.508 130.223 170.508C132.239 170.508 134.101 170.872 135.809 171.6C137.517 172.3 139.127 173.504 140.639 175.212L136.523 178.236ZM154.481 171.264H159.059L171.869 201H165.821L163.049 194.196H150.155L147.467 201H141.545L154.481 171.264ZM161.201 189.66L156.623 177.564L151.961 189.66H161.201ZM175.173 171.264H185.505C186.933 171.264 188.305 171.404 189.621 171.684C190.965 171.936 192.155 172.384 193.191 173.028C194.227 173.672 195.053 174.54 195.669 175.632C196.285 176.724 196.593 178.11 196.593 179.79C196.593 181.974 195.991 183.794 194.787 185.25C193.611 186.678 191.917 187.546 189.705 187.854L197.601 201H191.217L184.329 188.4H180.465V201H175.173V171.264ZM184.581 183.864C185.337 183.864 186.093 183.836 186.849 183.78C187.605 183.696 188.291 183.528 188.907 183.276C189.551 182.996 190.069 182.59 190.461 182.058C190.853 181.498 191.049 180.728 191.049 179.748C191.049 178.88 190.867 178.18 190.503 177.648C190.139 177.116 189.663 176.724 189.075 176.472C188.487 176.192 187.829 176.01 187.101 175.926C186.401 175.842 185.715 175.8 185.043 175.8H180.465V183.864H184.581ZM201.629 171.264H221.327V176.052H206.921V183.36H220.571V188.148H206.921V196.212H222.083V201H201.629V171.264Z" fill="#053358"/>
<path d="M24.668 213.992C24.428 213.644 24.104 213.392 23.696 213.236C23.3 213.068 22.88 212.984 22.436 212.984C22.172 212.984 21.914 213.014 21.662 213.074C21.422 213.134 21.2 213.23 20.996 213.362C20.804 213.494 20.648 213.668 20.528 213.884C20.408 214.088 20.348 214.334 20.348 214.622C20.348 215.054 20.498 215.384 20.798 215.612C21.098 215.84 21.47 216.038 21.914 216.206C22.358 216.374 22.844 216.536 23.372 216.692C23.9 216.848 24.386 217.064 24.83 217.34C25.274 217.616 25.646 217.982 25.946 218.438C26.246 218.894 26.396 219.5 26.396 220.256C26.396 220.94 26.27 221.54 26.018 222.056C25.766 222.56 25.424 222.98 24.992 223.316C24.572 223.652 24.08 223.904 23.516 224.072C22.952 224.24 22.358 224.324 21.734 224.324C20.942 224.324 20.18 224.192 19.448 223.928C18.728 223.664 18.098 223.22 17.558 222.596L19.268 220.94C19.544 221.36 19.904 221.69 20.348 221.93C20.804 222.158 21.284 222.272 21.788 222.272C22.052 222.272 22.316 222.236 22.58 222.164C22.844 222.092 23.084 221.984 23.3 221.84C23.516 221.696 23.69 221.516 23.822 221.3C23.954 221.072 24.02 220.814 24.02 220.526C24.02 220.058 23.87 219.698 23.57 219.446C23.27 219.194 22.898 218.984 22.454 218.816C22.01 218.636 21.524 218.468 20.996 218.312C20.468 218.156 19.982 217.946 19.538 217.682C19.094 217.406 18.722 217.046 18.422 216.602C18.122 216.146 17.972 215.54 17.972 214.784C17.972 214.124 18.104 213.554 18.368 213.074C18.644 212.594 18.998 212.198 19.43 211.886C19.874 211.562 20.378 211.322 20.942 211.166C21.506 211.01 22.082 210.932 22.67 210.932C23.354 210.932 24.008 211.034 24.632 211.238C25.256 211.442 25.82 211.778 26.324 212.246L24.668 213.992ZM28.4699 215.36H30.5219V216.71H30.5579C30.7499 216.302 31.0559 215.942 31.4759 215.63C31.9079 215.306 32.4839 215.144 33.2039 215.144C34.5479 215.144 35.4479 215.678 35.9039 216.746C36.2159 216.194 36.6059 215.792 37.0739 215.54C37.5419 215.276 38.0999 215.144 38.7479 215.144C39.3239 215.144 39.8099 215.24 40.2059 215.432C40.6019 215.624 40.9199 215.888 41.1599 216.224C41.4119 216.56 41.5919 216.956 41.6999 217.412C41.8079 217.856 41.8619 218.336 41.8619 218.852V224H39.7019V219.104C39.7019 218.84 39.6779 218.588 39.6299 218.348C39.5819 218.096 39.4979 217.88 39.3779 217.7C39.2579 217.508 39.0959 217.358 38.8919 217.25C38.6879 217.142 38.4239 217.088 38.0999 217.088C37.7639 217.088 37.4759 217.154 37.2359 217.286C37.0079 217.406 36.8159 217.574 36.6599 217.79C36.5159 217.994 36.4079 218.234 36.3359 218.51C36.2759 218.774 36.2459 219.044 36.2459 219.32V224H34.0859V218.852C34.0859 218.312 33.9719 217.886 33.7439 217.574C33.5279 217.25 33.1499 217.088 32.6099 217.088C32.2499 217.088 31.9439 217.148 31.6919 217.268C31.4519 217.388 31.2479 217.55 31.0799 217.754C30.9239 217.958 30.8099 218.192 30.7379 218.456C30.6659 218.72 30.6299 218.996 30.6299 219.284V224H28.4699V215.36ZM49.622 222.812H49.568C49.256 223.316 48.86 223.676 48.38 223.892C47.9 224.108 47.372 224.216 46.796 224.216C46.4 224.216 46.01 224.162 45.626 224.054C45.254 223.946 44.918 223.784 44.618 223.568C44.33 223.352 44.096 223.082 43.916 222.758C43.736 222.434 43.646 222.056 43.646 221.624C43.646 221.156 43.73 220.76 43.898 220.436C44.066 220.1 44.288 219.824 44.564 219.608C44.852 219.38 45.182 219.2 45.554 219.068C45.926 218.936 46.31 218.84 46.706 218.78C47.114 218.708 47.522 218.666 47.93 218.654C48.338 218.63 48.722 218.618 49.082 218.618H49.622V218.384C49.622 217.844 49.436 217.442 49.064 217.178C48.692 216.902 48.218 216.764 47.642 216.764C47.186 216.764 46.76 216.848 46.364 217.016C45.968 217.172 45.626 217.388 45.338 217.664L44.204 216.53C44.684 216.026 45.242 215.672 45.878 215.468C46.526 215.252 47.192 215.144 47.876 215.144C48.488 215.144 49.004 215.216 49.424 215.36C49.844 215.492 50.192 215.666 50.468 215.882C50.744 216.098 50.954 216.35 51.098 216.638C51.254 216.914 51.362 217.196 51.422 217.484C51.494 217.772 51.536 218.054 51.548 218.33C51.56 218.594 51.566 218.828 51.566 219.032V224H49.622V222.812ZM49.496 220.13H49.046C48.746 220.13 48.41 220.142 48.038 220.166C47.666 220.19 47.312 220.25 46.976 220.346C46.652 220.43 46.376 220.562 46.148 220.742C45.92 220.922 45.806 221.162 45.806 221.462C45.806 221.666 45.848 221.84 45.932 221.984C46.028 222.116 46.148 222.23 46.292 222.326C46.436 222.422 46.598 222.494 46.778 222.542C46.958 222.578 47.138 222.596 47.318 222.596C48.074 222.596 48.626 222.422 48.974 222.074C49.322 221.714 49.496 221.228 49.496 220.616V220.13ZM53.89 215.36H56.05V216.728H56.086C56.326 216.224 56.668 215.834 57.112 215.558C57.556 215.282 58.066 215.144 58.642 215.144C58.774 215.144 58.9 215.156 59.02 215.18C59.152 215.204 59.284 215.234 59.416 215.27V217.358C59.236 217.31 59.056 217.274 58.876 217.25C58.708 217.214 58.54 217.196 58.372 217.196C57.868 217.196 57.46 217.292 57.148 217.484C56.848 217.664 56.614 217.874 56.446 218.114C56.29 218.354 56.182 218.594 56.122 218.834C56.074 219.074 56.05 219.254 56.05 219.374V224H53.89V215.36ZM59.8781 217.196V215.36H61.6601V212.858H63.8201V215.36H66.1961V217.196H63.8201V220.976C63.8201 221.408 63.8981 221.75 64.0541 222.002C64.2221 222.254 64.5461 222.38 65.0261 222.38C65.2181 222.38 65.4281 222.362 65.6561 222.326C65.8841 222.278 66.0641 222.206 66.1961 222.11V223.928C65.9681 224.036 65.6861 224.108 65.3501 224.144C65.0261 224.192 64.7381 224.216 64.4861 224.216C63.9101 224.216 63.4361 224.15 63.0641 224.018C62.7041 223.898 62.4161 223.712 62.2001 223.46C61.9961 223.196 61.8521 222.872 61.7681 222.488C61.6961 222.104 61.6601 221.66 61.6601 221.156V217.196H59.8781ZM71.1582 211.256H73.6422L76.0362 220.436H76.0722L78.9342 211.256H81.1662L83.9742 220.436H84.0102L86.5122 211.256H88.8162L85.1082 224H82.9482L79.9962 214.298H79.9602L77.0082 224H74.9202L71.1582 211.256ZM92.2082 216.566H92.2442C92.4122 216.206 92.7062 215.882 93.1262 215.594C93.5462 215.294 94.0982 215.144 94.7822 215.144C95.3582 215.144 95.8442 215.24 96.2402 215.432C96.6482 215.624 96.9782 215.876 97.2302 216.188C97.4822 216.5 97.6622 216.86 97.7702 217.268C97.8782 217.676 97.9322 218.102 97.9322 218.546V224H95.7722V219.626C95.7722 219.386 95.7602 219.122 95.7362 218.834C95.7122 218.534 95.6462 218.258 95.5382 218.006C95.4422 217.742 95.2862 217.526 95.0702 217.358C94.8542 217.178 94.5602 217.088 94.1882 217.088C93.8282 217.088 93.5222 217.148 93.2702 217.268C93.0302 217.388 92.8262 217.55 92.6582 217.754C92.5022 217.958 92.3882 218.192 92.3162 218.456C92.2442 218.72 92.2082 218.996 92.2082 219.284V224H90.0482V210.392H92.2082V216.566ZM102.112 220.436C102.184 221.084 102.436 221.588 102.868 221.948C103.3 222.308 103.822 222.488 104.434 222.488C104.974 222.488 105.424 222.38 105.784 222.164C106.156 221.936 106.48 221.654 106.756 221.318L108.304 222.488C107.8 223.112 107.236 223.556 106.612 223.82C105.988 224.084 105.334 224.216 104.65 224.216C104.002 224.216 103.39 224.108 102.814 223.892C102.238 223.676 101.74 223.37 101.32 222.974C100.9 222.578 100.564 222.104 100.312 221.552C100.072 220.988 99.9522 220.364 99.9522 219.68C99.9522 218.996 100.072 218.378 100.312 217.826C100.564 217.262 100.9 216.782 101.32 216.386C101.74 215.99 102.238 215.684 102.814 215.468C103.39 215.252 104.002 215.144 104.65 215.144C105.25 215.144 105.796 215.252 106.288 215.468C106.792 215.672 107.218 215.972 107.566 216.368C107.926 216.764 108.202 217.256 108.394 217.844C108.598 218.42 108.7 219.086 108.7 219.842V220.436H102.112ZM106.54 218.816C106.528 218.168 106.33 217.664 105.946 217.304C105.562 216.944 105.028 216.764 104.344 216.764C103.696 216.764 103.18 216.95 102.796 217.322C102.424 217.694 102.196 218.192 102.112 218.816H106.54ZM112.448 220.436C112.52 221.084 112.772 221.588 113.204 221.948C113.636 222.308 114.158 222.488 114.77 222.488C115.31 222.488 115.76 222.38 116.12 222.164C116.492 221.936 116.816 221.654 117.092 221.318L118.64 222.488C118.136 223.112 117.572 223.556 116.948 223.82C116.324 224.084 115.67 224.216 114.986 224.216C114.338 224.216 113.726 224.108 113.15 223.892C112.574 223.676 112.076 223.37 111.656 222.974C111.236 222.578 110.9 222.104 110.648 221.552C110.408 220.988 110.288 220.364 110.288 219.68C110.288 218.996 110.408 218.378 110.648 217.826C110.9 217.262 111.236 216.782 111.656 216.386C112.076 215.99 112.574 215.684 113.15 215.468C113.726 215.252 114.338 215.144 114.986 215.144C115.586 215.144 116.132 215.252 116.624 215.468C117.128 215.672 117.554 215.972 117.902 216.368C118.262 216.764 118.538 217.256 118.73 217.844C118.934 218.42 119.036 219.086 119.036 219.842V220.436H112.448ZM116.876 218.816C116.864 218.168 116.666 217.664 116.282 217.304C115.898 216.944 115.364 216.764 114.68 216.764C114.032 216.764 113.516 216.95 113.132 217.322C112.76 217.694 112.532 218.192 112.448 218.816H116.876ZM121.092 210.392H123.252V224H121.092V210.392ZM131.636 217.952C131.384 217.688 131.12 217.478 130.844 217.322C130.568 217.166 130.286 217.088 129.998 217.088C129.602 217.088 129.248 217.16 128.936 217.304C128.624 217.448 128.354 217.64 128.126 217.88C127.91 218.12 127.742 218.396 127.622 218.708C127.514 219.02 127.46 219.344 127.46 219.68C127.46 220.016 127.514 220.34 127.622 220.652C127.742 220.964 127.91 221.24 128.126 221.48C128.354 221.72 128.624 221.912 128.936 222.056C129.248 222.2 129.602 222.272 129.998 222.272C130.682 222.272 131.24 222.002 131.672 221.462L133.112 223.01C132.896 223.226 132.644 223.412 132.356 223.568C132.08 223.724 131.798 223.85 131.51 223.946C131.222 224.042 130.946 224.108 130.682 224.144C130.418 224.192 130.19 224.216 129.998 224.216C129.35 224.216 128.738 224.108 128.162 223.892C127.586 223.676 127.088 223.37 126.668 222.974C126.248 222.578 125.912 222.104 125.66 221.552C125.42 220.988 125.3 220.364 125.3 219.68C125.3 218.996 125.42 218.378 125.66 217.826C125.912 217.262 126.248 216.782 126.668 216.386C127.088 215.99 127.586 215.684 128.162 215.468C128.738 215.252 129.35 215.144 129.998 215.144C130.55 215.144 131.102 215.252 131.654 215.468C132.218 215.672 132.71 216.002 133.13 216.458L131.636 217.952ZM136.575 216.566H136.611C136.779 216.206 137.073 215.882 137.493 215.594C137.913 215.294 138.465 215.144 139.149 215.144C139.725 215.144 140.211 215.24 140.607 215.432C141.015 215.624 141.345 215.876 141.597 216.188C141.849 216.5 142.029 216.86 142.137 217.268C142.245 217.676 142.299 218.102 142.299 218.546V224H140.139V219.626C140.139 219.386 140.127 219.122 140.103 218.834C140.079 218.534 140.013 218.258 139.905 218.006C139.809 217.742 139.653 217.526 139.437 217.358C139.221 217.178 138.927 217.088 138.555 217.088C138.195 217.088 137.889 217.148 137.637 217.268C137.397 217.388 137.193 217.55 137.025 217.754C136.869 217.958 136.755 218.192 136.683 218.456C136.611 218.72 136.575 218.996 136.575 219.284V224H134.415V210.392H136.575V216.566ZM150.151 222.812H150.097C149.785 223.316 149.389 223.676 148.909 223.892C148.429 224.108 147.901 224.216 147.325 224.216C146.929 224.216 146.539 224.162 146.155 224.054C145.783 223.946 145.447 223.784 145.147 223.568C144.859 223.352 144.625 223.082 144.445 222.758C144.265 222.434 144.175 222.056 144.175 221.624C144.175 221.156 144.259 220.76 144.427 220.436C144.595 220.1 144.817 219.824 145.093 219.608C145.381 219.38 145.711 219.2 146.083 219.068C146.455 218.936 146.839 218.84 147.235 218.78C147.643 218.708 148.051 218.666 148.459 218.654C148.867 218.63 149.251 218.618 149.611 218.618H150.151V218.384C150.151 217.844 149.965 217.442 149.593 217.178C149.221 216.902 148.747 216.764 148.171 216.764C147.715 216.764 147.289 216.848 146.893 217.016C146.497 217.172 146.155 217.388 145.867 217.664L144.733 216.53C145.213 216.026 145.771 215.672 146.407 215.468C147.055 215.252 147.721 215.144 148.405 215.144C149.017 215.144 149.533 215.216 149.953 215.36C150.373 215.492 150.721 215.666 150.997 215.882C151.273 216.098 151.483 216.35 151.627 216.638C151.783 216.914 151.891 217.196 151.951 217.484C152.023 217.772 152.065 218.054 152.077 218.33C152.089 218.594 152.095 218.828 152.095 219.032V224H150.151V222.812ZM150.025 220.13H149.575C149.275 220.13 148.939 220.142 148.567 220.166C148.195 220.19 147.841 220.25 147.505 220.346C147.181 220.43 146.905 220.562 146.677 220.742C146.449 220.922 146.335 221.162 146.335 221.462C146.335 221.666 146.377 221.84 146.461 221.984C146.557 222.116 146.677 222.23 146.821 222.326C146.965 222.422 147.127 222.494 147.307 222.542C147.487 222.578 147.667 222.596 147.847 222.596C148.603 222.596 149.155 222.422 149.503 222.074C149.851 221.714 150.025 221.228 150.025 220.616V220.13ZM154.455 215.36H156.615V224H154.455V215.36ZM154.149 212.426C154.149 212.078 154.275 211.778 154.527 211.526C154.791 211.262 155.121 211.13 155.517 211.13C155.913 211.13 156.243 211.256 156.507 211.508C156.783 211.748 156.921 212.054 156.921 212.426C156.921 212.798 156.783 213.11 156.507 213.362C156.243 213.602 155.913 213.722 155.517 213.722C155.121 213.722 154.791 213.596 154.527 213.344C154.275 213.08 154.149 212.774 154.149 212.426ZM159.095 215.36H161.255V216.728H161.291C161.531 216.224 161.873 215.834 162.317 215.558C162.761 215.282 163.271 215.144 163.847 215.144C163.979 215.144 164.105 215.156 164.225 215.18C164.357 215.204 164.489 215.234 164.621 215.27V217.358C164.441 217.31 164.261 217.274 164.081 217.25C163.913 217.214 163.745 217.196 163.577 217.196C163.073 217.196 162.665 217.292 162.353 217.484C162.053 217.664 161.819 217.874 161.651 218.114C161.495 218.354 161.387 218.594 161.327 218.834C161.279 219.074 161.255 219.254 161.255 219.374V224H159.095V215.36ZM174.911 211.256H176.873L182.363 224H179.771L178.583 221.084H173.057L171.905 224H169.367L174.911 211.256ZM177.791 219.14L175.829 213.956L173.831 219.14H177.791ZM183.581 215.36H185.633V216.656H185.669C185.981 216.116 186.401 215.732 186.929 215.504C187.457 215.264 188.027 215.144 188.639 215.144C189.299 215.144 189.893 215.264 190.421 215.504C190.949 215.732 191.399 216.05 191.771 216.458C192.143 216.866 192.425 217.346 192.617 217.898C192.809 218.45 192.905 219.044 192.905 219.68C192.905 220.316 192.803 220.91 192.599 221.462C192.395 222.014 192.107 222.494 191.735 222.902C191.375 223.31 190.937 223.634 190.421 223.874C189.905 224.102 189.341 224.216 188.729 224.216C188.333 224.216 187.973 224.174 187.649 224.09C187.337 224.006 187.061 223.898 186.821 223.766C186.581 223.634 186.377 223.496 186.209 223.352C186.041 223.196 185.903 223.046 185.795 222.902H185.741V228.104H183.581V215.36ZM190.745 219.68C190.745 219.344 190.685 219.02 190.565 218.708C190.457 218.396 190.289 218.12 190.061 217.88C189.845 217.64 189.581 217.448 189.269 217.304C188.957 217.16 188.603 217.088 188.207 217.088C187.811 217.088 187.457 217.16 187.145 217.304C186.833 217.448 186.563 217.64 186.335 217.88C186.119 218.12 185.951 218.396 185.831 218.708C185.723 219.02 185.669 219.344 185.669 219.68C185.669 220.016 185.723 220.34 185.831 220.652C185.951 220.964 186.119 221.24 186.335 221.48C186.563 221.72 186.833 221.912 187.145 222.056C187.457 222.2 187.811 222.272 188.207 222.272C188.603 222.272 188.957 222.2 189.269 222.056C189.581 221.912 189.845 221.72 190.061 221.48C190.289 221.24 190.457 220.964 190.565 220.652C190.685 220.34 190.745 220.016 190.745 219.68ZM194.919 215.36H196.971V216.656H197.007C197.319 216.116 197.739 215.732 198.267 215.504C198.795 215.264 199.365 215.144 199.977 215.144C200.637 215.144 201.231 215.264 201.759 215.504C202.287 215.732 202.737 216.05 203.109 216.458C203.481 216.866 203.763 217.346 203.955 217.898C204.147 218.45 204.243 219.044 204.243 219.68C204.243 220.316 204.141 220.91 203.937 221.462C203.733 222.014 203.445 222.494 203.073 222.902C202.713 223.31 202.275 223.634 201.759 223.874C201.243 224.102 200.679 224.216 200.067 224.216C199.671 224.216 199.311 224.174 198.987 224.09C198.675 224.006 198.399 223.898 198.159 223.766C197.919 223.634 197.715 223.496 197.547 223.352C197.379 223.196 197.241 223.046 197.133 222.902H197.079V228.104H194.919V215.36ZM202.083 219.68C202.083 219.344 202.023 219.02 201.903 218.708C201.795 218.396 201.627 218.12 201.399 217.88C201.183 217.64 200.919 217.448 200.607 217.304C200.295 217.16 199.941 217.088 199.545 217.088C199.149 217.088 198.795 217.16 198.483 217.304C198.171 217.448 197.901 217.64 197.673 217.88C197.457 218.12 197.289 218.396 197.169 218.708C197.061 219.02 197.007 219.344 197.007 219.68C197.007 220.016 197.061 220.34 197.169 220.652C197.289 220.964 197.457 221.24 197.673 221.48C197.901 221.72 198.171 221.912 198.483 222.056C198.795 222.2 199.149 222.272 199.545 222.272C199.941 222.272 200.295 222.2 200.607 222.056C200.919 221.912 201.183 221.72 201.399 221.48C201.627 221.24 201.795 220.964 201.903 220.652C202.023 220.34 202.083 220.016 202.083 219.68Z" fill="#053358"/>
<path d="M150.782 107.799C145.02 114.563 137.458 119.555 128.974 122.196C120.49 124.838 111.431 125.02 102.848 122.722C94.2647 120.424 86.5086 115.74 80.4792 109.213C74.4498 102.686 70.3942 94.5832 68.7827 85.8449C67.1712 77.1066 68.0698 68.0905 71.3743 59.8421C74.6788 51.5937 80.2538 44.4511 87.4528 39.2425C94.6518 34.0338 103.18 30.9727 112.048 30.4139" stroke="url(#paint0_angular_132_173)" stroke-width="10" stroke-linecap="round"/>
<path d="M171.169 120.576C164.703 130.719 156.323 138.294 147 142.424" stroke="url(#paint1_angular_132_173)" stroke-width="10" stroke-linecap="round"/>
<path d="M119.619 147.921C110.595 148.773 101.494 147.837 92.8341 145.165C84.1744 142.493 76.1262 138.139 69.1489 132.35C62.1717 126.561 56.4021 119.452 52.1695 111.428C47.937 103.403 45.3243 94.6209 44.4808 85.5824C43.6373 76.5439 44.5793 67.4261 47.2533 58.7496C49.9272 50.073 54.2806 42.0076 60.0649 35.014C65.8492 28.0203 72.9511 22.2352 80.9652 17.9892C88.9792 13.7431 97.7485 11.1191 106.772 10.267" stroke="#1BA897" stroke-width="20" stroke-linecap="round"/>
<ellipse cx="135" cy="38.9296" rx="16" ry="16.9296" fill="#053358"/>
<path d="M119 38.6391C119 35.8777 121.239 33.6391 124 33.6391V33.6391C126.761 33.6391 129 35.8777 129 38.6391V88.7405C129 92.2025 126.193 95.0091 122.731 95.0091V95.0091C120.671 95.0091 119 93.3385 119 91.2778V38.6391Z" fill="#053358"/>
<rect x="169" y="83.37" width="15.8715" height="50" rx="7.93577" transform="rotate(90 169 83.37)" fill="#053358"/>
<rect width="13.3563" height="55.7941" rx="6.67814" transform="matrix(-0.665922 0.746022 -0.707328 -0.706885 201.74 120.803)" fill="#053358"/>
<rect width="10.3034" height="26.2676" rx="5.1517" transform="matrix(-0.675809 -0.737077 0.697794 -0.716299 192.963 132)" fill="#053358"/>
<rect x="159" y="68.5565" width="10.581" height="40" rx="5.29052" transform="rotate(90 159 68.5565)" fill="#053358"/>
<defs>
<radialGradient id="paint0_angular_132_173" cx="0" cy="0" r="1" gradientUnits="userSpaceOnUse" gradientTransform="translate(119.33 76.3706) rotate(80.0405) scale(46.6275)">
<stop offset="0.195" stop-color="#05A9B8"/>
<stop offset="0.375" stop-color="#52A77B"/>
<stop offset="0.81" stop-color="#0AA8DA"/>
</radialGradient>
<radialGradient id="paint1_angular_132_173" cx="0" cy="0" r="1" gradientUnits="userSpaceOnUse" gradientTransform="translate(137.728 75.0323) rotate(83.6279) scale(68.0006 51.4431)">
<stop offset="0.195" stop-color="#05A9B8"/>
<stop offset="0.375" stop-color="#52A77B"/>
<stop offset="0.81" stop-color="#0AA8DA"/>
</radialGradient>
</defs>
</svg>
