<svg width="35" height="35" viewBox="0 0 35 35" fill="none" xmlns="http://www.w3.org/2000/svg">
<path d="M8.995 27.4881C9.35595 26.2868 10.0945 25.2338 11.1012 24.4854C12.1078 23.737 13.3289 23.333 14.5833 23.3333H20.4167C21.6727 23.3329 22.8953 23.7379 23.9026 24.488C24.91 25.2382 25.6484 26.2934 26.0079 27.4969M4.375 17.5C4.375 19.2236 4.71449 20.9303 5.37408 22.5227C6.03367 24.1151 7.00045 25.562 8.21922 26.7808C9.43799 27.9995 10.8849 28.9663 12.4773 29.6259C14.0697 30.2855 15.7764 30.625 17.5 30.625C19.2236 30.625 20.9303 30.2855 22.5227 29.6259C24.1151 28.9663 25.562 27.9995 26.7808 26.7808C27.9995 25.562 28.9663 24.1151 29.6259 22.5227C30.2855 20.9303 30.625 19.2236 30.625 17.5C30.625 15.7764 30.2855 14.0697 29.6259 12.4773C28.9663 10.8849 27.9995 9.43799 26.7808 8.21922C25.562 7.00045 24.1151 6.03367 22.5227 5.37408C20.9303 4.71449 19.2236 4.375 17.5 4.375C15.7764 4.375 14.0697 4.71449 12.4773 5.37408C10.8849 6.03367 9.43799 7.00045 8.21922 8.21922C7.00045 9.43799 6.03367 10.8849 5.37408 12.4773C4.71449 14.0697 4.375 15.7764 4.375 17.5ZM13.125 14.5833C13.125 15.7437 13.5859 16.8565 14.4064 17.6769C15.2269 18.4974 16.3397 18.9583 17.5 18.9583C18.6603 18.9583 19.7731 18.4974 20.5936 17.6769C21.4141 16.8565 21.875 15.7437 21.875 14.5833C21.875 13.423 21.4141 12.3102 20.5936 11.4897C19.7731 10.6693 18.6603 10.2083 17.5 10.2083C16.3397 10.2083 15.2269 10.6693 14.4064 11.4897C13.5859 12.3102 13.125 13.423 13.125 14.5833Z" stroke="#1BA897" stroke-width="3" stroke-linecap="round" stroke-linejoin="round"/>
</svg>
